<svg width="25" height="27" viewBox="0 0 25 27" fill="none" xmlns="http://www.w3.org/2000/svg">
<path d="M11.9933 3.26667C14.3489 3.26667 16.5711 3.77222 18.66 4.78333C20.7489 5.79444 22.4933 7.25556 23.8933 9.16667C24.0489 9.36667 24.0989 9.54444 24.0433 9.7C23.9878 9.85556 23.8933 9.98889 23.76 10.1C23.6267 10.2111 23.4711 10.2611 23.2933 10.25C23.1156 10.2389 22.96 10.1444 22.8267 9.96667C21.6044 8.23333 20.0322 6.90556 18.11 5.98333C16.1878 5.06111 14.1489 4.6 11.9933 4.6C9.83778 4.6 7.81556 5.06111 5.92667 5.98333C4.03778 6.90556 2.47111 8.23333 1.22667 9.96667C1.09333 10.1667 0.937778 10.2778 0.76 10.3C0.582222 10.3222 0.426667 10.2778 0.293333 10.1667C0.137778 10.0556 0.0433333 9.91667 0.01 9.75C-0.0233333 9.58333 0.0266667 9.41111 0.16 9.23333C1.53778 7.34444 3.26556 5.87778 5.34333 4.83333C7.42111 3.78889 9.63778 3.26667 11.9933 3.26667ZM11.9933 6.4C14.9933 6.4 17.5711 7.4 19.7267 9.4C21.8822 11.4 22.96 13.8778 22.96 16.8333C22.96 17.9444 22.5656 18.8722 21.7767 19.6167C20.9878 20.3611 20.0267 20.7333 18.8933 20.7333C17.76 20.7333 16.7878 20.3611 15.9767 19.6167C15.1656 18.8722 14.76 17.9444 14.76 16.8333C14.76 16.1 14.4878 15.4833 13.9433 14.9833C13.3989 14.4833 12.7489 14.2333 11.9933 14.2333C11.2378 14.2333 10.5878 14.4833 10.0433 14.9833C9.49889 15.4833 9.22667 16.1 9.22667 16.8333C9.22667 18.9889 9.86556 20.7889 11.1433 22.2333C12.4211 23.6778 14.0711 24.6889 16.0933 25.2667C16.2933 25.3333 16.4267 25.4444 16.4933 25.6C16.56 25.7556 16.5711 25.9222 16.5267 26.1C16.4822 26.2556 16.3933 26.3889 16.26 26.5C16.1267 26.6111 15.96 26.6444 15.76 26.6C13.4489 26.0222 11.56 24.8722 10.0933 23.15C8.62667 21.4278 7.89333 19.3222 7.89333 16.8333C7.89333 15.7222 8.29333 14.7889 9.09333 14.0333C9.89333 13.2778 10.86 12.9 11.9933 12.9C13.1267 12.9 14.0933 13.2778 14.8933 14.0333C15.6933 14.7889 16.0933 15.7222 16.0933 16.8333C16.0933 17.5667 16.3711 18.1833 16.9267 18.6833C17.4822 19.1833 18.1378 19.4333 18.8933 19.4333C19.6489 19.4333 20.2933 19.1833 20.8267 18.6833C21.36 18.1833 21.6267 17.5667 21.6267 16.8333C21.6267 14.2556 20.6822 12.0889 18.7933 10.3333C16.9044 8.57778 14.6489 7.7 12.0267 7.7C9.40444 7.7 7.14889 8.57778 5.26 10.3333C3.37111 12.0889 2.42667 14.2444 2.42667 16.8C2.42667 17.3333 2.47667 18 2.57667 18.8C2.67667 19.6 2.91556 20.5333 3.29333 21.6C3.36 21.8 3.35444 21.9778 3.27667 22.1333C3.19889 22.2889 3.07111 22.4 2.89333 22.4667C2.71556 22.5333 2.54333 22.5278 2.37667 22.45C2.21 22.3722 2.09333 22.2444 2.02667 22.0667C1.69333 21.2 1.45444 20.3389 1.31 19.4833C1.16556 18.6278 1.09333 17.7444 1.09333 16.8333C1.09333 13.8778 2.16556 11.4 4.31 9.4C6.45444 7.4 9.01556 6.4 11.9933 6.4ZM11.9933 0C13.4156 0 14.8044 0.172222 16.16 0.516667C17.5156 0.861111 18.8267 1.35556 20.0933 2C20.2933 2.11111 20.41 2.24444 20.4433 2.4C20.4767 2.55556 20.46 2.71111 20.3933 2.86667C20.3267 3.02222 20.2156 3.14444 20.06 3.23333C19.9044 3.32222 19.7156 3.31111 19.4933 3.2C18.3156 2.6 17.0989 2.13889 15.8433 1.81667C14.5878 1.49444 13.3044 1.33333 11.9933 1.33333C10.7044 1.33333 9.43778 1.48333 8.19333 1.78333C6.94889 2.08333 5.76 2.55556 4.62667 3.2C4.44889 3.31111 4.27111 3.33889 4.09333 3.28333C3.91556 3.22778 3.78222 3.11111 3.69333 2.93333C3.60444 2.75556 3.58222 2.59444 3.62667 2.45C3.67111 2.30556 3.78222 2.17778 3.96 2.06667C5.20444 1.4 6.50444 0.888889 7.86 0.533333C9.21556 0.177778 10.5933 0 11.9933 0ZM11.9933 9.63333C14.06 9.63333 15.8378 10.3278 17.3267 11.7167C18.8156 13.1056 19.56 14.8111 19.56 16.8333C19.56 17.0333 19.4989 17.1944 19.3767 17.3167C19.2544 17.4389 19.0933 17.5 18.8933 17.5C18.7156 17.5 18.56 17.4389 18.4267 17.3167C18.2933 17.1944 18.2267 17.0333 18.2267 16.8333C18.2267 15.1667 17.61 13.7722 16.3767 12.65C15.1433 11.5278 13.6822 10.9667 11.9933 10.9667C10.3044 10.9667 8.85444 11.5278 7.64333 12.65C6.43222 13.7722 5.82667 15.1667 5.82667 16.8333C5.82667 18.6333 6.13778 20.1611 6.76 21.4167C7.38222 22.6722 8.29333 23.9333 9.49333 25.2C9.62667 25.3333 9.69333 25.4889 9.69333 25.6667C9.69333 25.8444 9.62667 26 9.49333 26.1333C9.36 26.2667 9.20444 26.3333 9.02667 26.3333C8.84889 26.3333 8.69333 26.2667 8.56 26.1333C7.24889 24.7556 6.24333 23.35 5.54333 21.9167C4.84333 20.4833 4.49333 18.7889 4.49333 16.8333C4.49333 14.8111 5.22667 13.1056 6.69333 11.7167C8.16 10.3278 9.92667 9.63333 11.9933 9.63333ZM11.96 16.1667C12.16 16.1667 12.3211 16.2333 12.4433 16.3667C12.5656 16.5 12.6267 16.6556 12.6267 16.8333C12.6267 18.5 13.2267 19.8667 14.4267 20.9333C15.6267 22 17.0267 22.5333 18.6267 22.5333C18.76 22.5333 18.9489 22.5222 19.1933 22.5C19.4378 22.4778 19.6933 22.4444 19.96 22.4C20.16 22.3556 20.3322 22.3833 20.4767 22.4833C20.6211 22.5833 20.7156 22.7333 20.76 22.9333C20.8044 23.1111 20.7711 23.2667 20.66 23.4C20.5489 23.5333 20.4044 23.6222 20.2267 23.6667C19.8267 23.7778 19.4767 23.8389 19.1767 23.85C18.8767 23.8611 18.6933 23.8667 18.6267 23.8667C16.6489 23.8667 14.9322 23.2 13.4767 21.8667C12.0211 20.5333 11.2933 18.8556 11.2933 16.8333C11.2933 16.6556 11.3544 16.5 11.4767 16.3667C11.5989 16.2333 11.76 16.1667 11.96 16.1667Z" fill="#0058BE"/>
</svg>
