<svg width="31" height="16" viewBox="0 0 31 16" fill="none" xmlns="http://www.w3.org/2000/svg">
<path d="M8 10.6667C7.26667 10.6667 6.63889 10.4056 6.11667 9.88333C5.59444 9.36111 5.33333 8.73333 5.33333 8C5.33333 7.26667 5.59444 6.63889 6.11667 6.11667C6.63889 5.59444 7.26667 5.33333 8 5.33333C8.73333 5.33333 9.36111 5.59444 9.88333 6.11667C10.4056 6.63889 10.6667 7.26667 10.6667 8C10.6667 8.73333 10.4056 9.36111 9.88333 9.88333C9.36111 10.4056 8.73333 10.6667 8 10.6667ZM8 16C5.77778 16 3.88889 15.2222 2.33333 13.6667C0.777778 12.1111 0 10.2222 0 8C0 5.77778 0.777778 3.88889 2.33333 2.33333C3.88889 0.777778 5.77778 0 8 0C9.48889 0 10.8389 0.366667 12.05 1.1C13.2611 1.83333 14.2222 2.8 14.9333 4H26.6667L30.6667 8L24.6667 14L22 12L19.3333 14L16.5 12H14.9333C14.2222 13.2 13.2611 14.1667 12.05 14.9C10.8389 15.6333 9.48889 16 8 16ZM8 13.3333C9.24444 13.3333 10.3389 12.9556 11.2833 12.2C12.2278 11.4444 12.8556 10.4889 13.1667 9.33333H17.3333L19.2667 10.7L22 8.66667L24.3667 10.5L26.8667 8L25.5333 6.66667H13.1667C12.8556 5.51111 12.2278 4.55556 11.2833 3.8C10.3389 3.04444 9.24444 2.66667 8 2.66667C6.53333 2.66667 5.27778 3.18889 4.23333 4.23333C3.18889 5.27778 2.66667 6.53333 2.66667 8C2.66667 9.46667 3.18889 10.7222 4.23333 11.7667C5.27778 12.8111 6.53333 13.3333 8 13.3333Z" fill="#0058BE"/>
</svg>
