<svg width="34" height="34" viewBox="0 0 34 34" fill="none" xmlns="http://www.w3.org/2000/svg">
<path d="M5 33.3333C4.08333 33.3333 3.29861 33.0069 2.64583 32.3542C1.99306 31.7014 1.66667 30.9167 1.66667 30V11.2083C1.16667 10.9028 0.763889 10.5069 0.458333 10.0208C0.152778 9.53472 0 8.97222 0 8.33333V3.33333C0 2.41667 0.326389 1.63194 0.979167 0.979167C1.63194 0.326389 2.41667 0 3.33333 0H30C30.9167 0 31.7014 0.326389 32.3542 0.979167C33.0069 1.63194 33.3333 2.41667 33.3333 3.33333V8.33333C33.3333 8.97222 33.1806 9.53472 32.875 10.0208C32.5694 10.5069 32.1667 10.9028 31.6667 11.2083V30C31.6667 30.9167 31.3403 31.7014 30.6875 32.3542C30.0347 33.0069 29.25 33.3333 28.3333 33.3333H5ZM5 11.6667V30H28.3333V11.6667H5ZM3.33333 8.33333H30V3.33333H3.33333V8.33333ZM11.6667 20H21.6667V16.6667H11.6667V20Z" fill="#0058BE"/>
</svg>
