<svg width="38" height="38" viewBox="0 0 38 38" fill="none" xmlns="http://www.w3.org/2000/svg">
<path d="M7.91667 11.0833C8.75652 11.0833 9.56197 10.7497 10.1558 10.1558C10.7497 9.56197 11.0833 8.75652 11.0833 7.91667C11.0833 7.07681 10.7497 6.27136 10.1558 5.6775C9.56197 5.08363 8.75652 4.75 7.91667 4.75C7.07681 4.75 6.27136 5.08363 5.6775 5.6775C5.08363 6.27136 4.75 7.07681 4.75 7.91667C4.75 8.75652 5.08363 9.56197 5.6775 10.1558C6.27136 10.7497 7.07681 11.0833 7.91667 11.0833ZM19 11.0833C19.8399 11.0833 20.6453 10.7497 21.2392 10.1558C21.833 9.56197 22.1667 8.75652 22.1667 7.91667C22.1667 7.07681 21.833 6.27136 21.2392 5.6775C20.6453 5.08363 19.8399 4.75 19 4.75C18.1601 4.75 17.3547 5.08363 16.7608 5.6775C16.167 6.27136 15.8333 7.07681 15.8333 7.91667C15.8333 8.75652 16.167 9.56197 16.7608 10.1558C17.3547 10.7497 18.1601 11.0833 19 11.0833ZM30.0833 11.0833C30.9232 11.0833 31.7286 10.7497 32.3225 10.1558C32.9164 9.56197 33.25 8.75652 33.25 7.91667C33.25 7.07681 32.9164 6.27136 32.3225 5.6775C31.7286 5.08363 30.9232 4.75 30.0833 4.75C29.2435 4.75 28.438 5.08363 27.8442 5.6775C27.2503 6.27136 26.9167 7.07681 26.9167 7.91667C26.9167 8.75652 27.2503 9.56197 27.8442 10.1558C28.438 10.7497 29.2435 11.0833 30.0833 11.0833ZM7.91667 22.1667C8.75652 22.1667 9.56197 21.833 10.1558 21.2392C10.7497 20.6453 11.0833 19.8399 11.0833 19C11.0833 18.1601 10.7497 17.3547 10.1558 16.7608C9.56197 16.167 8.75652 15.8333 7.91667 15.8333C7.07681 15.8333 6.27136 16.167 5.6775 16.7608C5.08363 17.3547 4.75 18.1601 4.75 19C4.75 19.8399 5.08363 20.6453 5.6775 21.2392C6.27136 21.833 7.07681 22.1667 7.91667 22.1667ZM19 22.1667C19.8399 22.1667 20.6453 21.833 21.2392 21.2392C21.833 20.6453 22.1667 19.8399 22.1667 19C22.1667 18.1601 21.833 17.3547 21.2392 16.7608C20.6453 16.167 19.8399 15.8333 19 15.8333C18.1601 15.8333 17.3547 16.167 16.7608 16.7608C16.167 17.3547 15.8333 18.1601 15.8333 19C15.8333 19.8399 16.167 20.6453 16.7608 21.2392C17.3547 21.833 18.1601 22.1667 19 22.1667ZM30.0833 22.1667C30.9232 22.1667 31.7286 21.833 32.3225 21.2392C32.9164 20.6453 33.25 19.8399 33.25 19C33.25 18.1601 32.9164 17.3547 32.3225 16.7608C31.7286 16.167 30.9232 15.8333 30.0833 15.8333C29.2435 15.8333 28.438 16.167 27.8442 16.7608C27.2503 17.3547 26.9167 18.1601 26.9167 19C26.9167 19.8399 27.2503 20.6453 27.8442 21.2392C28.438 21.833 29.2435 22.1667 30.0833 22.1667ZM7.91667 33.25C8.75652 33.25 9.56197 32.9164 10.1558 32.3225C10.7497 31.7286 11.0833 30.9232 11.0833 30.0833C11.0833 29.2435 10.7497 28.438 10.1558 27.8442C9.56197 27.2503 8.75652 26.9167 7.91667 26.9167C7.07681 26.9167 6.27136 27.2503 5.6775 27.8442C5.08363 28.438 4.75 29.2435 4.75 30.0833C4.75 30.9232 5.08363 31.7286 5.6775 32.3225C6.27136 32.9164 7.07681 33.25 7.91667 33.25ZM19 33.25C19.8399 33.25 20.6453 32.9164 21.2392 32.3225C21.833 31.7286 22.1667 30.9232 22.1667 30.0833C22.1667 29.2435 21.833 28.438 21.2392 27.8442C20.6453 27.2503 19.8399 26.9167 19 26.9167C18.1601 26.9167 17.3547 27.2503 16.7608 27.8442C16.167 28.438 15.8333 29.2435 15.8333 30.0833C15.8333 30.9232 16.167 31.7286 16.7608 32.3225C17.3547 32.9164 18.1601 33.25 19 33.25ZM30.0833 33.25C30.9232 33.25 31.7286 32.9164 32.3225 32.3225C32.9164 31.7286 33.25 30.9232 33.25 30.0833C33.25 29.2435 32.9164 28.438 32.3225 27.8442C31.7286 27.2503 30.9232 26.9167 30.0833 26.9167C29.2435 26.9167 28.438 27.2503 27.8442 27.8442C27.2503 28.438 26.9167 29.2435 26.9167 30.0833C26.9167 30.9232 27.2503 31.7286 27.8442 32.3225C28.438 32.9164 29.2435 33.25 30.0833 33.25Z" fill="#3457E8"/>
</svg>
