<svg width="40" height="34" viewBox="0 0 40 34" fill="none" xmlns="http://www.w3.org/2000/svg">
<path d="M16 16C13.8 16 11.9167 15.2167 10.35 13.65C8.78333 12.0833 8 10.2 8 8C8 5.8 8.78333 3.91667 10.35 2.35C11.9167 0.783333 13.8 0 16 0C18.2 0 20.0833 0.783333 21.65 2.35C23.2167 3.91667 24 5.8 24 8C24 10.2 23.2167 12.0833 21.65 13.65C20.0833 15.2167 18.2 16 16 16ZM0 32V26.4C0 25.3 0.283333 24.2667 0.85 23.3C1.41667 22.3333 2.2 21.6 3.2 21.1C4.9 20.2333 6.81667 19.5 8.95 18.9C11.0833 18.3 13.4333 18 16 18C16.2667 18 16.5 18 16.7 18C16.9 18 17.1 18.0333 17.3 18.1C17.0333 18.7 16.8083 19.325 16.625 19.975C16.4417 20.625 16.3 21.3 16.2 22H16C13.6333 22 11.5083 22.3 9.625 22.9C7.74167 23.5 6.2 24.1 5 24.7C4.7 24.8667 4.45833 25.1 4.275 25.4C4.09167 25.7 4 26.0333 4 26.4V28H16.6C16.8 28.7 17.0667 29.3917 17.4 30.075C17.7333 30.7583 18.1 31.4 18.5 32H0ZM28 34L27.4 31C27 30.8333 26.625 30.6583 26.275 30.475C25.925 30.2917 25.5667 30.0667 25.2 29.8L22.3 30.7L20.3 27.3L22.6 25.3C22.5333 24.8333 22.5 24.4 22.5 24C22.5 23.6 22.5333 23.1667 22.6 22.7L20.3 20.7L22.3 17.3L25.2 18.2C25.5667 17.9333 25.925 17.7083 26.275 17.525C26.625 17.3417 27 17.1667 27.4 17L28 14H32L32.6 17C33 17.1667 33.375 17.35 33.725 17.55C34.075 17.75 34.4333 18 34.8 18.3L37.7 17.3L39.7 20.8L37.4 22.8C37.4667 23.2 37.5 23.6167 37.5 24.05C37.5 24.4833 37.4667 24.9 37.4 25.3L39.7 27.3L37.7 30.7L34.8 29.8C34.4333 30.0667 34.075 30.2917 33.725 30.475C33.375 30.6583 33 30.8333 32.6 31L32 34H28ZM30 28C31.1 28 32.0417 27.6083 32.825 26.825C33.6083 26.0417 34 25.1 34 24C34 22.9 33.6083 21.9583 32.825 21.175C32.0417 20.3917 31.1 20 30 20C28.9 20 27.9583 20.3917 27.175 21.175C26.3917 21.9583 26 22.9 26 24C26 25.1 26.3917 26.0417 27.175 26.825C27.9583 27.6083 28.9 28 30 28ZM16 12C17.1 12 18.0417 11.6083 18.825 10.825C19.6083 10.0417 20 9.1 20 8C20 6.9 19.6083 5.95833 18.825 5.175C18.0417 4.39167 17.1 4 16 4C14.9 4 13.9583 4.39167 13.175 5.175C12.3917 5.95833 12 6.9 12 8C12 9.1 12.3917 10.0417 13.175 10.825C13.9583 11.6083 14.9 12 16 12Z" fill="#0B1C30"/>
</svg>
