<svg width="40" height="36" viewBox="0 0 40 36" fill="none" xmlns="http://www.w3.org/2000/svg">
<path d="M4 36C2.9 36 1.95833 35.6083 1.175 34.825C0.391667 34.0417 0 33.1 0 32V4C0 2.9 0.391667 1.95833 1.175 1.175C1.95833 0.391667 2.9 0 4 0H36C37.1 0 38.0417 0.391667 38.825 1.175C39.6083 1.95833 40 2.9 40 4V32C40 33.1 39.6083 34.0417 38.825 34.825C38.0417 35.6083 37.1 36 36 36H4ZM4 32H36V4H4V32ZM6 28H16V24H6V28ZM25.1 24L35 14.1L32.15 11.25L25.1 18.35L22.25 15.5L19.45 18.35L25.1 24ZM6 20H16V16H6V20ZM6 12H16V8H6V12ZM4 32V4V32Z" fill="#0B1C30"/>
</svg>
