<svg width="15" height="15" viewBox="0 0 15 15" fill="none" xmlns="http://www.w3.org/2000/svg">
<path d="M6.25 8.125C6.83416 8.69759 7.61953 9.01831 8.4375 9.01831C9.25548 9.01831 10.0409 8.69759 10.625 8.125L11.875 6.875C12.3263 6.27322 12.5455 5.52882 12.4921 4.77848C12.4388 4.02813 12.1166 3.32221 11.5847 2.7903C11.0528 2.25839 10.3469 1.93619 9.59653 1.88287C8.84619 1.82954 8.10179 2.04866 7.5 2.5L6.875 3.125M8.75 6.875C8.16585 6.30242 7.38048 5.9817 6.5625 5.9817C5.74453 5.9817 4.95916 6.30242 4.375 6.875L3.125 8.125C2.67366 8.72679 2.45454 9.47119 2.50787 10.2215C2.56119 10.9719 2.88339 11.6778 3.4153 12.2097C3.94721 12.7416 4.65313 13.0638 5.40348 13.1171C6.15382 13.1705 6.89822 12.9513 7.5 12.5L8.125 11.875" stroke="#A98CF0" stroke-width="1.125" stroke-linecap="round" stroke-linejoin="round"/>
</svg>
