<svg width="15" height="15" viewBox="0 0 15 15" fill="none" xmlns="http://www.w3.org/2000/svg">
<g clip-path="url(#clip0_2472_4196)">
<path d="M7.49876 5.62672V8.12672M7.49876 10.6267H7.50501M6.43001 2.41421L1.13626 11.2517C1.02712 11.4407 0.969366 11.655 0.968755 11.8733C0.968144 12.0916 1.02469 12.3062 1.13278 12.4958C1.24086 12.6854 1.39672 12.8434 1.58483 12.9541C1.77294 13.0648 1.98676 13.1243 2.20501 13.1267H12.7925C13.0108 13.1243 13.2246 13.0648 13.4127 12.9541C13.6008 12.8434 13.7567 12.6854 13.8647 12.4958C13.9728 12.3062 14.0294 12.0916 14.0288 11.8733C14.0282 11.655 13.9704 11.4407 13.8613 11.2517L8.56751 2.41421C8.45609 2.23053 8.29921 2.07866 8.11201 1.97327C7.92481 1.86787 7.7136 1.8125 7.49876 1.8125C7.28393 1.8125 7.07272 1.86787 6.88551 1.97327C6.69831 2.07866 6.54143 2.23053 6.43001 2.41421Z" stroke="#B7791F" stroke-width="1.125" stroke-linecap="round" stroke-linejoin="round"/>
</g>
<defs>
<clipPath id="clip0_2472_4196">
<rect width="15" height="15" fill="white"/>
</clipPath>
</defs>
</svg>
