<svg width="15" height="15" viewBox="0 0 15 15" fill="none" xmlns="http://www.w3.org/2000/svg">
<path d="M4.37502 4.37502H4.38127M12.8688 8.38127L6.87502 2.39377C6.75822 2.27792 6.6197 2.18626 6.4674 2.12406C6.31511 2.06185 6.15203 2.03032 5.98752 2.03127H2.50002C2.33426 2.03127 2.17529 2.09712 2.05808 2.21433C1.94087 2.33154 1.87502 2.49051 1.87502 2.65627V6.14377C1.87407 6.30828 1.9056 6.47136 1.96781 6.62365C2.03001 6.77595 2.12167 6.91447 2.23752 7.03127L8.22502 13.0188C8.34111 13.135 8.47897 13.2272 8.63072 13.2901C8.78247 13.353 8.94513 13.3854 9.1094 13.3854C9.27367 13.3854 9.43632 13.353 9.58807 13.2901C9.73982 13.2272 9.87768 13.135 9.99377 13.0188L12.8688 10.1438C13.1016 9.90957 13.2323 9.59275 13.2323 9.26252C13.2323 8.93229 13.1016 8.61547 12.8688 8.38127Z" stroke="#3457E8" stroke-width="1.125" stroke-linecap="round" stroke-linejoin="round"/>
</svg>
