<svg width="25" height="25" viewBox="0 0 25 25" fill="none" xmlns="http://www.w3.org/2000/svg">
<path d="M21.3125 24.625L17.6562 21L14.9062 23.75L14.0312 22.875C13.5521 22.3958 13.3125 21.8021 13.3125 21.0938C13.3125 20.3854 13.5521 19.7917 14.0312 19.3125L19.3125 14.0312C19.7917 13.5521 20.3854 13.3125 21.0938 13.3125C21.8021 13.3125 22.3958 13.5521 22.875 14.0312L23.75 14.9062L21 17.6562L24.625 21.3125C24.875 21.5625 25 21.8542 25 22.1875C25 22.5208 24.875 22.8125 24.625 23.0625L23.0625 24.625C22.8125 24.875 22.5208 25 22.1875 25C21.8542 25 21.5625 24.875 21.3125 24.625ZM25 5L10.8125 19.1875L10.9688 19.3125C11.4479 19.7917 11.6875 20.3854 11.6875 21.0938C11.6875 21.8021 11.4479 22.3958 10.9688 22.875L10.0938 23.75L7.34375 21L3.6875 24.625C3.4375 24.875 3.14583 25 2.8125 25C2.47917 25 2.1875 24.875 1.9375 24.625L0.375 23.0625C0.125 22.8125 0 22.5208 0 22.1875C0 21.8542 0.125 21.5625 0.375 21.3125L4 17.6562L1.25 14.9062L2.125 14.0312C2.60417 13.5521 3.19792 13.3125 3.90625 13.3125C4.61458 13.3125 5.20833 13.5521 5.6875 14.0312L5.8125 14.1875L20 0H25V5ZM7.9375 9.40625L8.6875 8.6875L9.40625 7.9375L8.6875 8.6875L7.9375 9.40625ZM6.1875 11.1875L0 5V0H5L11.1875 6.1875L9.40625 7.9375L3.96875 2.5H2.5V3.96875L7.9375 9.40625L6.1875 11.1875ZM9.0625 17.4062L22.5 3.96875V2.5H21.0312L7.59375 15.9375L9.0625 17.4062ZM9.0625 17.4062L8.3125 16.6875L7.59375 15.9375L8.3125 16.6875L9.0625 17.4062Z" fill="#4A47D2"/>
</svg>
