<svg width="20" height="20" viewBox="0 0 20 20" fill="none" xmlns="http://www.w3.org/2000/svg">
<g clip-path="url(#clip0_1983_1298)">
<path d="M14.1641 16.6668H18.3307V15.0002C18.3307 13.9352 17.6559 12.9872 16.6497 12.6383C15.6435 12.2894 14.5267 12.6163 13.8674 13.4527M14.1641 16.6668H5.83073M14.1641 16.6668V15.0002C14.1641 14.4535 14.0591 13.931 13.8674 13.4527M5.83073 16.6668H1.66406V15.0002C1.66414 13.9352 2.33888 12.9872 3.3451 12.6383C4.35132 12.2894 5.46809 12.6163 6.1274 13.4527M5.83073 16.6668V15.0002C5.83073 14.4535 5.93573 13.931 6.1274 13.4527M6.1274 13.4527C6.76054 11.8704 8.29314 10.8329 9.9974 10.8329C11.7016 10.8329 13.2342 11.8704 13.8674 13.4527M12.4974 5.8335C12.4974 7.21328 11.3772 8.3335 9.9974 8.3335C8.61761 8.3335 7.4974 7.21328 7.4974 5.8335C7.4974 4.45371 8.61761 3.3335 9.9974 3.3335C11.3772 3.3335 12.4974 4.45371 12.4974 5.8335L14.1641 16.6668M19.1641 19.1668C19.1641 20.0867 18.4173 20.8335 17.4974 20.8335C16.5775 20.8335 15.8307 20.0867 15.8307 19.1668C15.8307 18.247 16.5775 17.5002 17.4974 17.5002C18.4173 17.5002 19.1641 18.247 19.1641 19.1668V19.1668M5.83073 8.3335C5.83073 9.25335 5.08392 10.0002 4.16406 10.0002C3.2442 10.0002 2.4974 9.25335 2.4974 8.3335C2.4974 7.41364 3.2442 6.66683 4.16406 6.66683C5.08392 6.66683 5.83073 7.41364 5.83073 8.3335V8.3335" stroke="#4F46E5" stroke-width="1.66667" stroke-linecap="round" stroke-linejoin="round"/>
</g>
<defs>
<clipPath id="clip0_1983_1298">
<rect width="20" height="20" fill="white"/>
</clipPath>
</defs>
</svg>
