<svg width="17" height="17" viewBox="0 0 17 17" fill="none" xmlns="http://www.w3.org/2000/svg">
<path d="M8.49219 4.95312V14.8607" stroke="#3457E8" stroke-width="1.27384" stroke-linecap="round" stroke-linejoin="round"/>
<path d="M2.12175 12.7403C1.93406 12.7403 1.75406 12.6658 1.62134 12.533C1.48862 12.4003 1.41406 12.2203 1.41406 12.0326V2.83269C1.41406 2.645 1.48862 2.46499 1.62134 2.33228C1.75406 2.19956 1.93406 2.125 2.12175 2.125H5.66019C6.41095 2.125 7.13096 2.42324 7.66183 2.95411C8.1927 3.48498 8.49094 4.20499 8.49094 4.95575C8.49094 4.20499 8.78918 3.48498 9.32004 2.95411C9.85091 2.42324 10.5709 2.125 11.3217 2.125H14.8601C15.0478 2.125 15.2278 2.19956 15.3605 2.33228C15.4933 2.46499 15.5678 2.645 15.5678 2.83269V12.0326C15.5678 12.2203 15.4933 12.4003 15.3605 12.533C15.2278 12.6658 15.0478 12.7403 14.8601 12.7403H10.614C10.0509 12.7403 9.51092 12.964 9.11277 13.3621C8.71462 13.7603 8.49094 14.3003 8.49094 14.8634C8.49094 14.3003 8.26726 13.7603 7.86911 13.3621C7.47096 12.964 6.93095 12.7403 6.36787 12.7403H2.12175Z" stroke="#3457E8" stroke-width="1.27384" stroke-linecap="round" stroke-linejoin="round"/>
</svg>
