<svg width="17" height="17" viewBox="0 0 17 17" fill="none" xmlns="http://www.w3.org/2000/svg">
<path d="M1.4583 8.24616C1.39932 8.40505 1.39932 8.57983 1.4583 8.73871C2.03273 10.1315 3.00779 11.3225 4.25987 12.1605C5.51195 12.9985 6.98466 13.4458 8.4913 13.4458C9.99793 13.4458 11.4706 12.9985 12.7227 12.1605C13.9748 11.3225 14.9499 10.1315 15.5243 8.73871C15.5833 8.57983 15.5833 8.40505 15.5243 8.24616C14.9499 6.85333 13.9748 5.66242 12.7227 4.82442C11.4706 3.98642 9.99793 3.53906 8.4913 3.53906C6.98466 3.53906 5.51195 3.98642 4.25987 4.82442C3.00779 5.66242 2.03273 6.85333 1.4583 8.24616Z" stroke="#3457E8" stroke-width="1.27384" stroke-linecap="round" stroke-linejoin="round"/>
<path d="M8.49416 10.6172C9.66669 10.6172 10.6172 9.66669 10.6172 8.49416C10.6172 7.32162 9.66669 6.37109 8.49416 6.37109C7.32162 6.37109 6.37109 7.32162 6.37109 8.49416C6.37109 9.66669 7.32162 10.6172 8.49416 10.6172Z" stroke="#3457E8" stroke-width="1.27384" stroke-linecap="round" stroke-linejoin="round"/>
</svg>
