<svg width="17" height="17" viewBox="0 0 17 17" fill="none" xmlns="http://www.w3.org/2000/svg">
<path d="M11.3217 14.8633V13.4479C11.3217 12.6972 11.0234 11.9772 10.4926 11.4463C9.96171 10.9154 9.2417 10.6172 8.49094 10.6172H4.24481C3.49405 10.6172 2.77404 10.9154 2.24317 11.4463C1.7123 11.9772 1.41406 12.6972 1.41406 13.4479V14.8633" stroke="#2DD4BF" stroke-width="1.27384" stroke-linecap="round" stroke-linejoin="round"/>
<path d="M6.36981 7.7865C7.93319 7.7865 9.20056 6.51913 9.20056 4.95575C9.20056 3.39237 7.93319 2.125 6.36981 2.125C4.80643 2.125 3.53906 3.39237 3.53906 4.95575C3.53906 6.51913 4.80643 7.7865 6.36981 7.7865Z" stroke="#2DD4BF" stroke-width="1.27384" stroke-linecap="round" stroke-linejoin="round"/>
<path d="M11.3242 7.78647L12.7396 9.20184L15.5703 6.37109" stroke="#2DD4BF" stroke-width="1.27384" stroke-linecap="round" stroke-linejoin="round"/>
</svg>
