<svg width="17" height="17" viewBox="0 0 17 17" fill="none" xmlns="http://www.w3.org/2000/svg">
<path d="M4.25 2.125V10.6173" stroke="#3457E8" stroke-width="1.27384" stroke-linecap="round" stroke-linejoin="round"/>
<path d="M12.7403 6.37113C13.9128 6.37113 14.8633 5.4206 14.8633 4.24806C14.8633 3.07553 13.9128 2.125 12.7403 2.125C11.5677 2.125 10.6172 3.07553 10.6172 4.24806C10.6172 5.4206 11.5677 6.37113 12.7403 6.37113Z" stroke="#3457E8" stroke-width="1.27384" stroke-linecap="round" stroke-linejoin="round"/>
<path d="M4.24806 14.8633C5.4206 14.8633 6.37113 13.9128 6.37113 12.7403C6.37113 11.5677 5.4206 10.6172 4.24806 10.6172C3.07553 10.6172 2.125 11.5677 2.125 12.7403C2.125 13.9128 3.07553 14.8633 4.24806 14.8633Z" stroke="#3457E8" stroke-width="1.27384" stroke-linecap="round" stroke-linejoin="round"/>
<path d="M12.7364 6.37109C12.7364 8.06031 12.0653 9.68034 10.8709 10.8748C9.67643 12.0692 8.0564 12.7403 6.36719 12.7403" stroke="#3457E8" stroke-width="1.27384" stroke-linecap="round" stroke-linejoin="round"/>
</svg>
