<svg width="16" height="16" viewBox="0 0 16 16" fill="none" xmlns="http://www.w3.org/2000/svg">
<path d="M5.33333 1.33398V4.00065M10.6667 1.33398V4.00065M2 6.66732H14M3.33333 2.66732H12.6667C13.0203 2.66732 13.3594 2.80779 13.6095 3.05784C13.8595 3.30789 14 3.64703 14 4.00065V13.334C14 13.6876 13.8595 14.0267 13.6095 14.2768C13.3594 14.5268 13.0203 14.6673 12.6667 14.6673H3.33333C2.97971 14.6673 2.64057 14.5268 2.39052 14.2768C2.14048 14.0267 2 13.6876 2 13.334V4.00065C2 3.64703 2.14048 3.30789 2.39052 3.05784C2.64057 2.80779 2.97971 2.66732 3.33333 2.66732Z" stroke="#3457E8" stroke-width="1.2" stroke-linecap="round" stroke-linejoin="round"/>
</svg>
