<svg width="16" height="20" viewBox="0 0 16 20" fill="none" xmlns="http://www.w3.org/2000/svg">
<path d="M8 16C7.06667 16 6.175 16.1458 5.325 16.4375C4.475 16.7292 3.7 17.1667 3 17.75C3 17.7833 3 17.825 3 17.875C3 17.925 3 17.9667 3 18H13C13 17.9667 13 17.925 13 17.875C13 17.825 13 17.7833 13 17.75C12.3 17.1667 11.525 16.7292 10.675 16.4375C9.825 16.1458 8.93333 16 8 16ZM8 14C9.15 14 10.225 14.175 11.225 14.525C12.225 14.875 13.15 15.3667 14 16V2H2V16C2.85 15.3667 3.775 14.875 4.775 14.525C5.775 14.175 6.85 14 8 14ZM8 10C7.58333 10 7.22917 9.85417 6.9375 9.5625C6.64583 9.27083 6.5 8.91667 6.5 8.5C6.5 8.08333 6.64583 7.72917 6.9375 7.4375C7.22917 7.14583 7.58333 7 8 7C8.41667 7 8.77083 7.14583 9.0625 7.4375C9.35417 7.72917 9.5 8.08333 9.5 8.5C9.5 8.91667 9.35417 9.27083 9.0625 9.5625C8.77083 9.85417 8.41667 10 8 10ZM2 20C1.45 20 0.979167 19.8042 0.5875 19.4125C0.195833 19.0208 0 18.55 0 18V2C0 1.45 0.195833 0.979167 0.5875 0.5875C0.979167 0.195833 1.45 0 2 0H14C14.55 0 15.0208 0.195833 15.4125 0.5875C15.8042 0.979167 16 1.45 16 2V18C16 18.55 15.8042 19.0208 15.4125 19.4125C15.0208 19.8042 14.55 20 14 20H2ZM8 12C8.96667 12 9.79167 11.6583 10.475 10.975C11.1583 10.2917 11.5 9.46667 11.5 8.5C11.5 7.53333 11.1583 6.70833 10.475 6.025C9.79167 5.34167 8.96667 5 8 5C7.03333 5 6.20833 5.34167 5.525 6.025C4.84167 6.70833 4.5 7.53333 4.5 8.5C4.5 9.46667 4.84167 10.2917 5.525 10.975C6.20833 11.6583 7.03333 12 8 12Z" fill="white"/>
</svg>
