<svg width="23" height="23" viewBox="0 0 23 23" fill="none" xmlns="http://www.w3.org/2000/svg">
<path d="M9.87151 3.73708L1.72568 17.2496C1.55869 17.5387 1.47013 17.8664 1.46877 18.2003C1.4674 18.5342 1.55327 18.8626 1.71787 19.1531C1.88248 19.4436 2.12011 19.686 2.40723 19.8564C2.69435 20.0268 3.02101 20.1193 3.35484 20.1246H19.6465C19.9803 20.1193 20.307 20.0268 20.5941 19.8564C20.8812 19.686 21.1189 19.4436 21.2835 19.1531C21.4481 18.8626 21.534 18.5342 21.5326 18.2003C21.5312 17.8664 21.4427 17.5387 21.2757 17.2496L13.1298 3.73708C12.9579 3.45972 12.7181 3.23083 12.433 3.07211C12.1479 2.91339 11.827 2.83008 11.5007 2.83008C11.1744 2.83008 10.8535 2.91339 10.5684 3.07211C10.2833 3.23083 10.0434 3.45972 9.87151 3.73708Z" stroke="#C3CAFF" stroke-width="1.925"/>
<path d="M11.5 8.625V12.4583M11.5 16.2917H11.5096" stroke="#C3CAFF" stroke-width="1.925"/>
</svg>
