<svg width="21" height="21" viewBox="0 0 21 21" fill="none" xmlns="http://www.w3.org/2000/svg">
<g clip-path="url(#clip0_1193_355)">
<path d="M20.125 3.5V8.75H14.875M0.875 17.5V12.25H6.125" stroke="#4F46E5" stroke-width="1.75"/>
<path d="M3.0625 7.87473C3.49902 6.60961 4.25076 5.47662 5.24674 4.5827C6.24273 3.68878 7.45009 3.06344 8.75486 2.76571C10.0596 2.46798 11.4188 2.50768 12.7039 2.88106C13.9891 3.25445 15.1579 3.9492 16.1 4.89973L20.125 8.74973M0.875 12.2497L4.9 16.0997C5.84211 17.0503 7.01091 17.745 8.29608 18.1184C9.58125 18.4918 10.9404 18.5315 12.2451 18.2337C13.5499 17.936 14.7573 17.3107 15.7533 16.4168C16.7492 15.5228 17.501 14.3898 17.9375 13.1247" stroke="#4F46E5" stroke-width="1.75"/>
</g>
<defs>
<clipPath id="clip0_1193_355">
<rect width="21" height="21" fill="white"/>
</clipPath>
</defs>
</svg>
