<svg width="28" height="28" viewBox="0 0 28 28" fill="none" xmlns="http://www.w3.org/2000/svg">
<path d="M12.0185 4.55046L2.10184 21.0005C1.89856 21.3524 1.79075 21.7514 1.78908 22.1579C1.78742 22.5643 1.89195 22.9642 2.09234 23.3178C2.29273 23.6714 2.58202 23.9666 2.93156 24.174C3.2811 24.3814 3.67877 24.494 4.08517 24.5005H23.9185C24.3249 24.494 24.7226 24.3814 25.0721 24.174C25.4217 23.9666 25.7109 23.6714 25.9113 23.3178C26.1117 22.9642 26.2163 22.5643 26.2146 22.1579C26.2129 21.7514 26.1051 21.3524 25.9018 21.0005L15.9852 4.55046C15.7759 4.21281 15.4839 3.93416 15.1368 3.74094C14.7898 3.54771 14.3991 3.44629 14.0018 3.44629C13.6046 3.44629 13.2139 3.54771 12.8669 3.74094C12.5198 3.93416 12.2278 4.21281 12.0185 4.55046Z" stroke="#C9D0FF" stroke-width="1.98333"/>
<path d="M14 10.5V15.1667M14 19.8333H14.0117" stroke="#C9D0FF" stroke-width="1.98333"/>
</svg>
