<svg width="17" height="17" viewBox="0 0 17 17" fill="none" xmlns="http://www.w3.org/2000/svg">
<g clip-path="url(#clip0_1193_511)">
<path d="M16.2943 2.83301V7.08301H12.0443M0.710938 14.1663V9.91634H4.96094" stroke="#4F46E5" stroke-width="1.41667"/>
<path d="M2.48177 6.37473C2.83515 5.35059 3.4437 4.43341 4.24997 3.70976C5.05624 2.98611 6.03363 2.47988 7.08987 2.23886C8.14612 1.99784 9.24636 2.02998 10.2867 2.33224C11.3271 2.63451 12.2733 3.19692 13.0359 3.9664L16.2943 7.08307M0.710938 9.9164L3.96927 13.0331C4.73193 13.8025 5.67811 14.365 6.71848 14.6672C7.75885 14.9695 8.85909 15.0016 9.91533 14.7606C10.9716 14.5196 11.949 14.0134 12.7552 13.2897C13.5615 12.5661 14.1701 11.6489 14.5234 10.6247" stroke="#4F46E5" stroke-width="1.41667"/>
</g>
<defs>
<clipPath id="clip0_1193_511">
<rect width="17" height="17" fill="white"/>
</clipPath>
</defs>
</svg>
